<svg xmlns="http://www.w3.org/2000/svg" version="1.1" xmlns:xlink="http://www.w3.org/1999/xlink" xmlns:svgjs="http://svgjs.dev/svgjs" width="308.7612359841165" height="304.915625" viewBox="0 0 2000 2242"><g transform="matrix(1,0,0,1,-3.110230019401115,0)"><svg viewBox="0 0 321 360" data-background-color="#000000" preserveAspectRatio="xMidYMid meet" height="2242" width="2000" xmlns="http://www.w3.org/2000/svg" xmlns:xlink="http://www.w3.org/1999/xlink"><g id="tight-bounds" transform="matrix(1,0,0,1,0.49964772669761714,0)"><svg viewBox="0 0 320 360" height="360" width="320"><rect width="320.0011603551885" height="360" fill="url(#ecbc408f-6d12-497f-bbb4-2d0db33ce5d6)" mask="url(#770e716b-18cc-4751-bf11-7f80560285d4)" data-fill-palette-color="tertiary"></rect><g><svg></svg></g><g><svg viewBox="0 0 320 360" height="360" width="320"><g><path d="M307.925 179.999l6.575-11.387c11.322-19.607 4.604-44.679-15.003-56.001l-11.387-6.575v-13.151c0-22.639-18.354-40.994-40.994-40.994h-13.151l-6.575-11.387c-11.322-19.607-36.393-26.325-56.001-15.003l-11.39 6.572-11.387-6.576c-19.607-11.318-44.679-4.6-56.001 15.007l-6.575 11.387h-13.151c-22.639 0-40.994 18.354-40.994 40.994v13.151l-11.387 6.575c-19.607 11.322-26.325 36.393-15.003 56.001l6.572 11.387-6.576 11.387c-11.318 19.607-4.6 44.679 15.007 56l11.387 6.576v13.15c0 22.639 18.354 40.994 40.994 40.994h13.151l6.575 11.387c11.322 19.607 36.393 26.325 56.001 15.003l11.387-6.571 11.387 6.575c19.607 11.322 44.679 4.604 56-15.003l6.576-11.387h13.15c22.639 0 40.994-18.354 40.994-40.994v-13.151l11.387-6.575c19.607-11.322 26.325-36.393 15.003-56.001zM297.702 115.716c8.655 4.996 14.842 13.062 17.428 22.713 2.586 9.65 1.261 19.734-3.735 28.384l-5.538 9.596-17.747-30.74v-35.494zM251.155 271.155l-57.791 33.365h-66.731l-57.791-33.365-33.365-57.791v-66.731l33.365-57.791 57.791-33.365h66.731l57.791 33.365 33.365 57.791v66.731zM284.517 220.539v31.351l-27.151 15.676zM247.566 277.366l-15.676 27.151h-31.351zM187.15 308.106l-27.151 15.676-27.151-15.676zM119.459 304.517h-31.352l-15.676-27.151zM62.632 267.566l-27.151-15.676v-31.351zM31.891 207.15l-15.675-27.151 15.675-27.151zM35.481 139.459v-31.352l27.151-15.676zM72.431 82.632l15.676-27.151h31.352zM132.848 51.891l27.151-15.675 27.151 15.675zM200.539 55.481h31.351l15.676 27.151zM257.366 92.431l27.151 15.676v31.352zM288.106 152.848l15.676 27.151-15.676 27.151zM247.112 55.481c9.992 0 19.384 3.889 26.452 10.956 7.063 7.063 10.956 16.46 10.957 26.452v11.079l-30.741-17.747-17.747-30.74zM173.18 28.606c8.655-4.996 18.735-6.322 28.385-3.735 9.65 2.586 17.716 8.777 22.712 17.428l5.538 9.596h-35.494l-30.741-17.747zM95.716 42.295c4.996-8.655 13.062-14.842 22.713-17.428 9.65-2.586 19.734-1.261 28.384 3.736l9.596 5.537-30.74 17.747h-35.494zM35.481 92.885c0-9.992 3.889-19.384 10.956-26.452 7.063-7.063 16.46-10.956 26.452-10.956h11.079l-17.747 30.74-30.74 17.747zM8.606 166.817c-4.996-8.655-6.322-18.735-3.735-28.385 2.586-9.65 8.777-17.716 17.428-22.712l9.596-5.538v35.495l-17.747 30.74zM22.295 244.281c-8.655-4.996-14.842-13.062-17.428-22.712-2.586-9.65-1.261-19.734 3.736-28.385l5.537-9.596 17.747 30.74v35.495zM72.885 304.517c-9.992 0-19.384-3.889-26.452-10.957-7.063-7.063-10.956-16.46-10.956-26.451v-11.08l30.74 17.747 17.747 30.741zM146.817 331.391c-8.655 4.996-18.735 6.322-28.385 3.735-9.65-2.586-17.716-8.777-22.712-17.428l-5.538-9.596h35.495l30.74 17.747zM224.281 317.702c-4.996 8.655-13.062 14.842-22.712 17.428-9.65 2.586-19.734 1.261-28.385-3.735l-9.596-5.538 30.74-17.747h35.495zM284.517 267.112c0 9.992-3.889 19.384-10.957 26.452-7.063 7.063-16.46 10.956-26.451 10.957h-11.08l17.747-30.741 30.741-17.747zM315.13 221.565c-2.586 9.65-8.777 17.716-17.428 22.712l-9.596 5.538v-35.494l17.747-30.741 5.538 9.596c4.996 8.658 6.326 18.739 3.739 28.389z" fill="url(#ecbc408f-6d12-497f-bbb4-2d0db33ce5d6)" fill-rule="nonzero" stroke="none" stroke-width="1" stroke-linecap="butt" stroke-linejoin="miter" stroke-miterlimit="10" stroke-dasharray="" stroke-dashoffset="0" font-family="none" font-weight="none" font-size="none" text-anchor="none" style="mix-blend-mode: normal" data-fill-palette-color="tertiary"></path></g><g transform="matrix(1,0,0,1,104.8539886039886,90)"><svg viewBox="0 0 110.29202279202279 180" height="180" width="110.29202279202279"><g><svg viewBox="0 0 110.29202279202279 180" height="180" width="110.29202279202279"><g><svg viewBox="0 0 110.29202279202279 180" height="180" width="110.29202279202279"><g><svg viewBox="0 0 110.29202279202279 180" height="180" width="110.29202279202279"><g id="textblocktransform"><svg viewBox="0 0 110.29202279202279 180" height="180" width="110.29202279202279" id="textblock"><g><svg viewBox="0 0 110.29202279202279 180" height="180" width="110.29202279202279"><g transform="matrix(1,0,0,1,0,0)"><svg width="110.29202279202279" viewBox="-1.2166663333200003 -36.45 22.332030874965 36.45" height="180" data-palette-color="url(#60528f65-9f34-48a3-a1a9-677f5f86577a)"></svg></g></svg></g></svg></g></svg></g><g></g></svg></g></svg></g></svg></g></svg></g><defs></defs><mask id="b28efee9-ab8c-4ba3-a96a-6a17f7c3e6f8"><g id="SvgjsG2138"><svg viewBox="0 0 320 360" height="360" width="320"><g><svg></svg></g><g><svg viewBox="0 0 320 360" height="360" width="320"><g><path d="M307.925 179.999l6.575-11.387c11.322-19.607 4.604-44.679-15.003-56.001l-11.387-6.575v-13.151c0-22.639-18.354-40.994-40.994-40.994h-13.151l-6.575-11.387c-11.322-19.607-36.393-26.325-56.001-15.003l-11.39 6.572-11.387-6.576c-19.607-11.318-44.679-4.6-56.001 15.007l-6.575 11.387h-13.151c-22.639 0-40.994 18.354-40.994 40.994v13.151l-11.387 6.575c-19.607 11.322-26.325 36.393-15.003 56.001l6.572 11.387-6.576 11.387c-11.318 19.607-4.6 44.679 15.007 56l11.387 6.576v13.15c0 22.639 18.354 40.994 40.994 40.994h13.151l6.575 11.387c11.322 19.607 36.393 26.325 56.001 15.003l11.387-6.571 11.387 6.575c19.607 11.322 44.679 4.604 56-15.003l6.576-11.387h13.15c22.639 0 40.994-18.354 40.994-40.994v-13.151l11.387-6.575c19.607-11.322 26.325-36.393 15.003-56.001zM297.702 115.716c8.655 4.996 14.842 13.062 17.428 22.713 2.586 9.65 1.261 19.734-3.735 28.384l-5.538 9.596-17.747-30.74v-35.494zM251.155 271.155l-57.791 33.365h-66.731l-57.791-33.365-33.365-57.791v-66.731l33.365-57.791 57.791-33.365h66.731l57.791 33.365 33.365 57.791v66.731zM284.517 220.539v31.351l-27.151 15.676zM247.566 277.366l-15.676 27.151h-31.351zM187.15 308.106l-27.151 15.676-27.151-15.676zM119.459 304.517h-31.352l-15.676-27.151zM62.632 267.566l-27.151-15.676v-31.351zM31.891 207.15l-15.675-27.151 15.675-27.151zM35.481 139.459v-31.352l27.151-15.676zM72.431 82.632l15.676-27.151h31.352zM132.848 51.891l27.151-15.675 27.151 15.675zM200.539 55.481h31.351l15.676 27.151zM257.366 92.431l27.151 15.676v31.352zM288.106 152.848l15.676 27.151-15.676 27.151zM247.112 55.481c9.992 0 19.384 3.889 26.452 10.956 7.063 7.063 10.956 16.46 10.957 26.452v11.079l-30.741-17.747-17.747-30.74zM173.18 28.606c8.655-4.996 18.735-6.322 28.385-3.735 9.65 2.586 17.716 8.777 22.712 17.428l5.538 9.596h-35.494l-30.741-17.747zM95.716 42.295c4.996-8.655 13.062-14.842 22.713-17.428 9.65-2.586 19.734-1.261 28.384 3.736l9.596 5.537-30.74 17.747h-35.494zM35.481 92.885c0-9.992 3.889-19.384 10.956-26.452 7.063-7.063 16.46-10.956 26.452-10.956h11.079l-17.747 30.74-30.74 17.747zM8.606 166.817c-4.996-8.655-6.322-18.735-3.735-28.385 2.586-9.65 8.777-17.716 17.428-22.712l9.596-5.538v35.495l-17.747 30.74zM22.295 244.281c-8.655-4.996-14.842-13.062-17.428-22.712-2.586-9.65-1.261-19.734 3.736-28.385l5.537-9.596 17.747 30.74v35.495zM72.885 304.517c-9.992 0-19.384-3.889-26.452-10.957-7.063-7.063-10.956-16.46-10.956-26.451v-11.08l30.74 17.747 17.747 30.741zM146.817 331.391c-8.655 4.996-18.735 6.322-28.385 3.735-9.65-2.586-17.716-8.777-22.712-17.428l-5.538-9.596h35.495l30.74 17.747zM224.281 317.702c-4.996 8.655-13.062 14.842-22.712 17.428-9.65 2.586-19.734 1.261-28.385-3.735l-9.596-5.538 30.74-17.747h35.495zM284.517 267.112c0 9.992-3.889 19.384-10.957 26.452-7.063 7.063-16.46 10.956-26.451 10.957h-11.08l17.747-30.741 30.741-17.747zM315.13 221.565c-2.586 9.65-8.777 17.716-17.428 22.712l-9.596 5.538v-35.494l17.747-30.741 5.538 9.596c4.996 8.658 6.326 18.739 3.739 28.389z" fill="black" fill-rule="nonzero" stroke="none" stroke-width="1" stroke-linecap="butt" stroke-linejoin="miter" stroke-miterlimit="10" stroke-dasharray="" stroke-dashoffset="0" font-family="none" font-weight="none" font-size="none" text-anchor="none" style="mix-blend-mode: normal"></path></g><g transform="matrix(1,0,0,1,104.8539886039886,90)"><svg viewBox="0 0 110.29202279202279 180" height="180" width="110.29202279202279"><g><svg viewBox="0 0 110.29202279202279 180" height="180" width="110.29202279202279"><g><svg viewBox="0 0 110.29202279202279 180" height="180" width="110.29202279202279"><g><svg viewBox="0 0 110.29202279202279 180" height="180" width="110.29202279202279"><g id="SvgjsG2137"><svg viewBox="0 0 110.29202279202279 180" height="180" width="110.29202279202279" id="SvgjsSvg2136"><g><svg viewBox="0 0 110.29202279202279 180" height="180" width="110.29202279202279"><g transform="matrix(1,0,0,1,0,0)"><svg width="110.29202279202279" viewBox="-1.2166663333200003 -36.45 22.332030874965 36.45" height="180" data-palette-color="url(#60528f65-9f34-48a3-a1a9-677f5f86577a)"><path d="M15-35.35L15-35.35Q16-35.35 17.3-34.98 18.6-34.6 19.4-33.75L19.4-33.75Q19.95-33.25 19.25-33.45L19.25-33.45Q18.55-33.55 17.82-33.77 17.1-34 16.25-34L16.25-34Q13.15-34.05 11.75-32.23 10.35-30.4 10.15-27.6L10.15-27.6Q10-25.65 10.23-23.73 10.45-21.8 10.75-19.9 11.05-18 11.28-16.1 11.5-14.2 11.3-12.25L11.3-12.25Q11.25-11.7 11.18-11.6 11.1-11.5 11.03-11.65 10.95-11.8 10.88-12.08 10.8-12.35 10.75-12.55L10.75-12.55Q10.45-14.55 10-16.57 9.55-18.6 9.15-20.65 8.75-22.7 8.53-24.75 8.3-26.8 8.5-28.9L8.5-28.9Q8.65-30.25 9.15-31.43 9.65-32.6 10.48-33.48 11.3-34.35 12.45-34.85 13.6-35.35 15-35.35ZM6.1-28.75L6.1-28.75Q6.25-30.1 6.8-31.48 7.35-32.85 8.28-33.98 9.2-35.1 10.53-35.77 11.85-36.45 13.5-36.45L13.5-36.45Q13.55-36.45 13.78-36.43 14-36.4 14.18-36.35 14.35-36.3 14.33-36.25 14.3-36.2 13.95-36.15L13.95-36.15Q12.6-35.9 11.45-35.25 10.3-34.6 9.45-33.65 8.6-32.7 8.08-31.53 7.55-30.35 7.45-29.1L7.45-29.1Q7.25-26.7 7.65-24.28 8.05-21.85 8.58-19.45 9.1-17.05 9.47-14.63 9.85-12.2 9.65-9.8L9.65-9.8Q9.55-8.85 9.2-7.8 8.85-6.75 8.28-5.85 7.7-4.95 6.85-4.33 6-3.7 4.95-3.55L4.95-3.55Q4.15-3.45 4.28-3.63 4.4-3.8 4.85-4.05L4.85-4.05Q6.65-5.05 7.33-6.4 8-7.75 8.2-9.75L8.2-9.75Q8.4-12.05 8.03-14.45 7.65-16.85 7.15-19.25 6.65-21.65 6.28-24.03 5.9-26.4 6.1-28.75ZM4.75-1.05L4.75-1.05Q6.85-1.05 8.3-1.83 9.75-2.6 10.7-3.88 11.65-5.15 12.15-6.83 12.65-8.5 12.8-10.3L12.8-10.3Q13-12.55 12.7-14.8 12.4-17.05 12.03-19.28 11.65-21.5 11.35-23.75 11.05-26 11.25-28.3L11.25-28.3Q11.45-30.6 12.68-31.95 13.9-33.3 16.35-33.3L16.35-33.3Q17.2-33.3 18.53-33 19.85-32.7 20.7-32.15L20.7-32.15Q21.6-31.55 20.55-31.8L20.55-31.8Q19.95-31.95 19-32.15 18.05-32.35 17.55-32.35L17.55-32.35Q15.6-32.35 14.2-31.5 12.8-30.65 12.6-28.5L12.6-28.5Q12.35-26.2 12.7-23.93 13.05-21.65 13.5-19.35 13.95-17.05 14.28-14.75 14.6-12.45 14.4-10.15L14.4-10.15Q14.25-8.25 13.65-6.45 13.05-4.65 11.95-3.2 10.85-1.75 9.22-0.88 7.6 0 5.4 0L5.4 0Q4.8 0 3.85-0.2 2.9-0.4 1.95-0.73 1-1.05 0.18-1.53-0.65-2-1.05-2.55L-1.05-2.55Q-1.5-3.05-0.75-2.8L-0.75-2.8Q0.1-2.35 1.33-1.7 2.55-1.05 4.75-1.05ZM4.45-2.8L4.45-2.8Q5.7-2.8 6.75-3.2 7.8-3.6 8.9-4.25L8.9-4.25 8.9-4.1Q8.9-3.65 8.43-3.23 7.95-2.8 7.25-2.45 6.55-2.1 5.68-1.9 4.8-1.7 3.9-1.7L3.9-1.7Q3.55-1.7 2.95-1.83 2.35-1.95 1.73-2.18 1.1-2.4 0.55-2.7 0-3-0.2-3.4L-0.2-3.4Q-0.75-4-0.55-4.08-0.35-4.15 0-3.9L0-3.9Q0.8-3.65 1.83-3.23 2.85-2.8 4.45-2.8Z" opacity="1" transform="matrix(1,0,0,1,0,0)" fill="white" class="wordmark-text-0" id="SvgjsPath2135"></path></svg></g></svg></g></svg></g></svg></g><g></g></svg></g></svg></g></svg></g></svg></g><defs><mask></mask></defs></svg><rect width="320" height="360" fill="black" stroke="none" visibility="hidden"></rect></g></mask><linearGradient x1="0" x2="1" y1="0.548" y2="0.55" id="60528f65-9f34-48a3-a1a9-677f5f86577a"><stop stop-color="#ff6cab" offset="0"></stop><stop stop-color="#7366ff" offset="1"></stop></linearGradient><rect width="320.00070454660477" height="360" fill="url(#60528f65-9f34-48a3-a1a9-677f5f86577a)" mask="url(#b28efee9-ab8c-4ba3-a96a-6a17f7c3e6f8)" data-fill-palette-color="primary"></rect><mask id="770e716b-18cc-4751-bf11-7f80560285d4"><g id="SvgjsG2161"><svg viewBox="0 0 320 360" height="360" width="320"><g><svg></svg></g><g><svg viewBox="0 0 320 360" height="360" width="320"><g><path d="M307.925 179.999l6.575-11.387c11.322-19.607 4.604-44.679-15.003-56.001l-11.387-6.575v-13.151c0-22.639-18.354-40.994-40.994-40.994h-13.151l-6.575-11.387c-11.322-19.607-36.393-26.325-56.001-15.003l-11.39 6.572-11.387-6.576c-19.607-11.318-44.679-4.6-56.001 15.007l-6.575 11.387h-13.151c-22.639 0-40.994 18.354-40.994 40.994v13.151l-11.387 6.575c-19.607 11.322-26.325 36.393-15.003 56.001l6.572 11.387-6.576 11.387c-11.318 19.607-4.6 44.679 15.007 56l11.387 6.576v13.15c0 22.639 18.354 40.994 40.994 40.994h13.151l6.575 11.387c11.322 19.607 36.393 26.325 56.001 15.003l11.387-6.571 11.387 6.575c19.607 11.322 44.679 4.604 56-15.003l6.576-11.387h13.15c22.639 0 40.994-18.354 40.994-40.994v-13.151l11.387-6.575c19.607-11.322 26.325-36.393 15.003-56.001zM297.702 115.716c8.655 4.996 14.842 13.062 17.428 22.713 2.586 9.65 1.261 19.734-3.735 28.384l-5.538 9.596-17.747-30.74v-35.494zM251.155 271.155l-57.791 33.365h-66.731l-57.791-33.365-33.365-57.791v-66.731l33.365-57.791 57.791-33.365h66.731l57.791 33.365 33.365 57.791v66.731zM284.517 220.539v31.351l-27.151 15.676zM247.566 277.366l-15.676 27.151h-31.351zM187.15 308.106l-27.151 15.676-27.151-15.676zM119.459 304.517h-31.352l-15.676-27.151zM62.632 267.566l-27.151-15.676v-31.351zM31.891 207.15l-15.675-27.151 15.675-27.151zM35.481 139.459v-31.352l27.151-15.676zM72.431 82.632l15.676-27.151h31.352zM132.848 51.891l27.151-15.675 27.151 15.675zM200.539 55.481h31.351l15.676 27.151zM257.366 92.431l27.151 15.676v31.352zM288.106 152.848l15.676 27.151-15.676 27.151zM247.112 55.481c9.992 0 19.384 3.889 26.452 10.956 7.063 7.063 10.956 16.46 10.957 26.452v11.079l-30.741-17.747-17.747-30.74zM173.18 28.606c8.655-4.996 18.735-6.322 28.385-3.735 9.65 2.586 17.716 8.777 22.712 17.428l5.538 9.596h-35.494l-30.741-17.747zM95.716 42.295c4.996-8.655 13.062-14.842 22.713-17.428 9.65-2.586 19.734-1.261 28.384 3.736l9.596 5.537-30.74 17.747h-35.494zM35.481 92.885c0-9.992 3.889-19.384 10.956-26.452 7.063-7.063 16.46-10.956 26.452-10.956h11.079l-17.747 30.74-30.74 17.747zM8.606 166.817c-4.996-8.655-6.322-18.735-3.735-28.385 2.586-9.65 8.777-17.716 17.428-22.712l9.596-5.538v35.495l-17.747 30.74zM22.295 244.281c-8.655-4.996-14.842-13.062-17.428-22.712-2.586-9.65-1.261-19.734 3.736-28.385l5.537-9.596 17.747 30.74v35.495zM72.885 304.517c-9.992 0-19.384-3.889-26.452-10.957-7.063-7.063-10.956-16.46-10.956-26.451v-11.08l30.74 17.747 17.747 30.741zM146.817 331.391c-8.655 4.996-18.735 6.322-28.385 3.735-9.65-2.586-17.716-8.777-22.712-17.428l-5.538-9.596h35.495l30.74 17.747zM224.281 317.702c-4.996 8.655-13.062 14.842-22.712 17.428-9.65 2.586-19.734 1.261-28.385-3.735l-9.596-5.538 30.74-17.747h35.495zM284.517 267.112c0 9.992-3.889 19.384-10.957 26.452-7.063 7.063-16.46 10.956-26.451 10.957h-11.08l17.747-30.741 30.741-17.747zM315.13 221.565c-2.586 9.65-8.777 17.716-17.428 22.712l-9.596 5.538v-35.494l17.747-30.741 5.538 9.596c4.996 8.658 6.326 18.739 3.739 28.389z" fill="white" fill-rule="nonzero" stroke="none" stroke-width="1" stroke-linecap="butt" stroke-linejoin="miter" stroke-miterlimit="10" stroke-dasharray="" stroke-dashoffset="0" font-family="none" font-weight="none" font-size="none" text-anchor="none" style="mix-blend-mode: normal"></path></g><g transform="matrix(1,0,0,1,104.8539886039886,90)"><svg viewBox="0 0 110.29202279202279 180" height="180" width="110.29202279202279"><g><svg viewBox="0 0 110.29202279202279 180" height="180" width="110.29202279202279"><g><svg viewBox="0 0 110.29202279202279 180" height="180" width="110.29202279202279"><g><svg viewBox="0 0 110.29202279202279 180" height="180" width="110.29202279202279"><g id="SvgjsG2160"><svg viewBox="0 0 110.29202279202279 180" height="180" width="110.29202279202279" id="SvgjsSvg2159"><g><svg viewBox="0 0 110.29202279202279 180" height="180" width="110.29202279202279"><g transform="matrix(1,0,0,1,0,0)"><svg width="110.29202279202279" viewBox="-1.2166663333200003 -36.45 22.332030874965 36.45" height="180" data-palette-color="url(#60528f65-9f34-48a3-a1a9-677f5f86577a)"></svg></g></svg></g></svg></g></svg></g><g></g></svg></g></svg></g></svg></g></svg></g><defs><mask></mask></defs><mask><g id="SvgjsG2158"><svg viewBox="0 0 320 360" height="360" width="320"><g><svg></svg></g><g><svg viewBox="0 0 320 360" height="360" width="320"><g><path d="M307.925 179.999l6.575-11.387c11.322-19.607 4.604-44.679-15.003-56.001l-11.387-6.575v-13.151c0-22.639-18.354-40.994-40.994-40.994h-13.151l-6.575-11.387c-11.322-19.607-36.393-26.325-56.001-15.003l-11.39 6.572-11.387-6.576c-19.607-11.318-44.679-4.6-56.001 15.007l-6.575 11.387h-13.151c-22.639 0-40.994 18.354-40.994 40.994v13.151l-11.387 6.575c-19.607 11.322-26.325 36.393-15.003 56.001l6.572 11.387-6.576 11.387c-11.318 19.607-4.6 44.679 15.007 56l11.387 6.576v13.15c0 22.639 18.354 40.994 40.994 40.994h13.151l6.575 11.387c11.322 19.607 36.393 26.325 56.001 15.003l11.387-6.571 11.387 6.575c19.607 11.322 44.679 4.604 56-15.003l6.576-11.387h13.15c22.639 0 40.994-18.354 40.994-40.994v-13.151l11.387-6.575c19.607-11.322 26.325-36.393 15.003-56.001zM297.702 115.716c8.655 4.996 14.842 13.062 17.428 22.713 2.586 9.65 1.261 19.734-3.735 28.384l-5.538 9.596-17.747-30.74v-35.494zM251.155 271.155l-57.791 33.365h-66.731l-57.791-33.365-33.365-57.791v-66.731l33.365-57.791 57.791-33.365h66.731l57.791 33.365 33.365 57.791v66.731zM284.517 220.539v31.351l-27.151 15.676zM247.566 277.366l-15.676 27.151h-31.351zM187.15 308.106l-27.151 15.676-27.151-15.676zM119.459 304.517h-31.352l-15.676-27.151zM62.632 267.566l-27.151-15.676v-31.351zM31.891 207.15l-15.675-27.151 15.675-27.151zM35.481 139.459v-31.352l27.151-15.676zM72.431 82.632l15.676-27.151h31.352zM132.848 51.891l27.151-15.675 27.151 15.675zM200.539 55.481h31.351l15.676 27.151zM257.366 92.431l27.151 15.676v31.352zM288.106 152.848l15.676 27.151-15.676 27.151zM247.112 55.481c9.992 0 19.384 3.889 26.452 10.956 7.063 7.063 10.956 16.46 10.957 26.452v11.079l-30.741-17.747-17.747-30.74zM173.18 28.606c8.655-4.996 18.735-6.322 28.385-3.735 9.65 2.586 17.716 8.777 22.712 17.428l5.538 9.596h-35.494l-30.741-17.747zM95.716 42.295c4.996-8.655 13.062-14.842 22.713-17.428 9.65-2.586 19.734-1.261 28.384 3.736l9.596 5.537-30.74 17.747h-35.494zM35.481 92.885c0-9.992 3.889-19.384 10.956-26.452 7.063-7.063 16.46-10.956 26.452-10.956h11.079l-17.747 30.74-30.74 17.747zM8.606 166.817c-4.996-8.655-6.322-18.735-3.735-28.385 2.586-9.65 8.777-17.716 17.428-22.712l9.596-5.538v35.495l-17.747 30.74zM22.295 244.281c-8.655-4.996-14.842-13.062-17.428-22.712-2.586-9.65-1.261-19.734 3.736-28.385l5.537-9.596 17.747 30.74v35.495zM72.885 304.517c-9.992 0-19.384-3.889-26.452-10.957-7.063-7.063-10.956-16.46-10.956-26.451v-11.08l30.74 17.747 17.747 30.741zM146.817 331.391c-8.655 4.996-18.735 6.322-28.385 3.735-9.65-2.586-17.716-8.777-22.712-17.428l-5.538-9.596h35.495l30.74 17.747zM224.281 317.702c-4.996 8.655-13.062 14.842-22.712 17.428-9.65 2.586-19.734 1.261-28.385-3.735l-9.596-5.538 30.74-17.747h35.495zM284.517 267.112c0 9.992-3.889 19.384-10.957 26.452-7.063 7.063-16.46 10.956-26.451 10.957h-11.08l17.747-30.741 30.741-17.747zM315.13 221.565c-2.586 9.65-8.777 17.716-17.428 22.712l-9.596 5.538v-35.494l17.747-30.741 5.538 9.596c4.996 8.658 6.326 18.739 3.739 28.389z" fill="black" fill-rule="nonzero" stroke="none" stroke-width="1" stroke-linecap="butt" stroke-linejoin="miter" stroke-miterlimit="10" stroke-dasharray="" stroke-dashoffset="0" font-family="none" font-weight="none" font-size="none" text-anchor="none" style="mix-blend-mode: normal"></path></g><g transform="matrix(1,0,0,1,104.8539886039886,90)"><svg viewBox="0 0 110.29202279202279 180" height="180" width="110.29202279202279"><g><svg viewBox="0 0 110.29202279202279 180" height="180" width="110.29202279202279"><g><svg viewBox="0 0 110.29202279202279 180" height="180" width="110.29202279202279"><g><svg viewBox="0 0 110.29202279202279 180" height="180" width="110.29202279202279"><g id="SvgjsG2157"><svg viewBox="0 0 110.29202279202279 180" height="180" width="110.29202279202279" id="SvgjsSvg2156"><g><svg viewBox="0 0 110.29202279202279 180" height="180" width="110.29202279202279"><g transform="matrix(1,0,0,1,0,0)"><svg width="110.29202279202279" viewBox="-1.2166663333200003 -36.45 22.332030874965 36.45" height="180" data-palette-color="url(#60528f65-9f34-48a3-a1a9-677f5f86577a)"><path d="M15-35.35L15-35.35Q16-35.35 17.3-34.98 18.6-34.6 19.4-33.75L19.4-33.75Q19.95-33.25 19.25-33.45L19.25-33.45Q18.55-33.55 17.82-33.77 17.1-34 16.25-34L16.25-34Q13.15-34.05 11.75-32.23 10.35-30.4 10.15-27.6L10.15-27.6Q10-25.65 10.23-23.73 10.45-21.8 10.75-19.9 11.05-18 11.28-16.1 11.5-14.2 11.3-12.25L11.3-12.25Q11.25-11.7 11.18-11.6 11.1-11.5 11.03-11.65 10.95-11.8 10.88-12.08 10.8-12.35 10.75-12.55L10.75-12.55Q10.45-14.55 10-16.57 9.55-18.6 9.15-20.65 8.75-22.7 8.53-24.75 8.3-26.8 8.5-28.9L8.5-28.9Q8.65-30.25 9.15-31.43 9.65-32.6 10.48-33.48 11.3-34.35 12.45-34.85 13.6-35.35 15-35.35ZM6.1-28.75L6.1-28.75Q6.25-30.1 6.8-31.48 7.35-32.85 8.28-33.98 9.2-35.1 10.53-35.77 11.85-36.45 13.5-36.45L13.5-36.45Q13.55-36.45 13.78-36.43 14-36.4 14.18-36.35 14.35-36.3 14.33-36.25 14.3-36.2 13.95-36.15L13.95-36.15Q12.6-35.9 11.45-35.25 10.3-34.6 9.45-33.65 8.6-32.7 8.08-31.53 7.55-30.35 7.45-29.1L7.45-29.1Q7.25-26.7 7.65-24.28 8.05-21.85 8.58-19.45 9.1-17.05 9.47-14.63 9.85-12.2 9.65-9.8L9.65-9.8Q9.55-8.85 9.2-7.8 8.85-6.75 8.28-5.85 7.7-4.95 6.85-4.33 6-3.7 4.95-3.55L4.95-3.55Q4.15-3.45 4.28-3.63 4.4-3.8 4.85-4.05L4.85-4.05Q6.65-5.05 7.33-6.4 8-7.75 8.2-9.75L8.2-9.75Q8.4-12.05 8.03-14.45 7.65-16.85 7.15-19.25 6.65-21.65 6.28-24.03 5.9-26.4 6.1-28.75ZM4.75-1.05L4.75-1.05Q6.85-1.05 8.3-1.83 9.75-2.6 10.7-3.88 11.65-5.15 12.15-6.83 12.65-8.5 12.8-10.3L12.8-10.3Q13-12.55 12.7-14.8 12.4-17.05 12.03-19.28 11.65-21.5 11.35-23.75 11.05-26 11.25-28.3L11.25-28.3Q11.45-30.6 12.68-31.95 13.9-33.3 16.35-33.3L16.35-33.3Q17.2-33.3 18.53-33 19.85-32.7 20.7-32.15L20.7-32.15Q21.6-31.55 20.55-31.8L20.55-31.8Q19.95-31.95 19-32.15 18.05-32.35 17.55-32.35L17.55-32.35Q15.6-32.35 14.2-31.5 12.8-30.65 12.6-28.5L12.6-28.5Q12.35-26.2 12.7-23.93 13.05-21.65 13.5-19.35 13.95-17.05 14.28-14.75 14.6-12.45 14.4-10.15L14.4-10.15Q14.25-8.25 13.65-6.45 13.05-4.65 11.95-3.2 10.85-1.75 9.22-0.88 7.6 0 5.4 0L5.4 0Q4.8 0 3.85-0.2 2.9-0.4 1.95-0.73 1-1.05 0.18-1.53-0.65-2-1.05-2.55L-1.05-2.55Q-1.5-3.05-0.75-2.8L-0.75-2.8Q0.1-2.35 1.33-1.7 2.55-1.05 4.75-1.05ZM4.45-2.8L4.45-2.8Q5.7-2.8 6.75-3.2 7.8-3.6 8.9-4.25L8.9-4.25 8.9-4.1Q8.9-3.65 8.43-3.23 7.95-2.8 7.25-2.45 6.55-2.1 5.68-1.9 4.8-1.7 3.9-1.7L3.9-1.7Q3.55-1.7 2.95-1.83 2.35-1.95 1.73-2.18 1.1-2.4 0.55-2.7 0-3-0.2-3.4L-0.2-3.4Q-0.75-4-0.55-4.08-0.35-4.15 0-3.9L0-3.9Q0.8-3.65 1.83-3.23 2.85-2.8 4.45-2.8Z" opacity="1" transform="matrix(1,0,0,1,0,0)" fill="black" class="wordmark-text-0" id="SvgjsPath2155"></path></svg></g></svg></g></svg></g></svg></g><g></g></svg></g></svg></g></svg></g></svg></g><defs><mask></mask></defs></svg><rect width="320" height="360" fill="black" stroke="none" visibility="hidden"></rect></g></mask></svg><rect width="320" height="360" fill="black" stroke="none" visibility="hidden"></rect></g></mask><linearGradient x1="0" x2="1" y1="0.548" y2="0.55" id="ecbc408f-6d12-497f-bbb4-2d0db33ce5d6"><stop stop-color="#ff6cab" offset="0"></stop><stop stop-color="#7366ff" offset="1"></stop></linearGradient></svg><rect width="320" height="360" fill="none" stroke="none" visibility="hidden"></rect></g></svg></g></svg>